<svg class="main-svg" xmlns="http://www.w3.org/2000/svg" xmlns:xlink="http://www.w3.org/1999/xlink" width="800" height="400" style="" viewBox="0 0 800 400"><rect x="0" y="0" width="800" height="400" style="fill: rgb(0, 0, 0); fill-opacity: 0;"/><defs id="defs-ee1945"><g class="clips"><clipPath id="clipee1945xyplot" class="plotclip"><rect width="640" height="260"/></clipPath><clipPath class="axesclip" id="clipee1945x"><rect x="80" y="0" width="640" height="400"/></clipPath><clipPath class="axesclip" id="clipee1945y"><rect x="0" y="60" width="800" height="260"/></clipPath><clipPath class="axesclip" id="clipee1945xy"><rect x="80" y="60" width="640" height="260"/></clipPath></g><g class="gradients"/><g class="patterns"/></defs><g class="bglayer"><rect class="bg" x="80" y="60" width="640" height="260" style="fill: rgb(0, 0, 0); fill-opacity: 0; stroke-width: 0;"/></g><g class="layer-below"><g class="imagelayer"/><g class="shapelayer"/></g><g class="cartesianlayer"><g class="subplot xy"><g class="layer-subplot"><g class="shapelayer"/><g class="imagelayer"/></g><g class="minor-gridlayer"><g class="x"/><g class="y"/></g><g class="gridlayer"><g class="x"/><g class="y"/></g><g class="zerolinelayer"/><g class="layer-between"><g class="shapelayer"/><g class="imagelayer"/></g><path class="xlines-below"/><path class="ylines-below"/><g class="overlines-below"/><g class="xaxislayer-below"/><g class="yaxislayer-below"/><g class="overaxes-below"/><g class="overplot"><g class="xy" transform="translate(80,60)" clip-path="url(#clipee1945xyplot)"><g class="scatterlayer mlayer"><g class="trace scatter trace332d6e" style="stroke-miterlimit: 2; opacity: 1;"><g class="fills"/><g class="errorbars"/><g class="lines"><path class="js-line" d="M0,76.78Q0.94,143.77 1.53,143.77C2.11,143.77 1.73,78.7 3.51,78.44C4.06,78.36 4.93,84.52 5.5,84.46C6.4,84.37 6.82,68.68 7.47,68.68C8.14,68.68 8.77,79.98 9.47,85.21C10.1,89.95 10.88,98.77 11.44,98.74C12.43,98.69 12.64,55.73 13.44,55.71C14.03,55.7 14.77,78.83 15.42,78.83C16.1,78.83 16.88,53.37 17.43,53.39C18.72,53.43 18.68,193.26 19.39,193.26C20.02,193.26 20.24,84.89 21.4,84.85C21.94,84.83 22.72,108.49 23.35,108.49C24.04,108.49 24.48,87.11 25.36,79.65C25.93,74.87 26.78,67.91 27.32,67.95C28.79,68.06 28.67,154.95 29.31,154.95C30,154.95 29.14,53.76 31.27,53.48C31.84,53.4 32.68,57.77 33.28,60.36C34.04,63.63 34.58,71.59 35.25,71.59C35.9,71.59 36.04,61.72 37.24,61.14C37.79,60.88 38.65,62.4 39.22,62.18C40.13,61.83 40.33,57.08 41.21,56.79C41.78,56.6 42.62,58.29 43.19,58.1C44.07,57.81 44.5,52.68 45.17,52.68C45.83,52.68 46.61,55.43 47.16,57.92C48.39,63.48 48.45,85.75 49.14,85.75C49.78,85.75 50.03,66.9 51.13,61.72C51.68,59.15 52.52,56.05 53.1,56.1C53.91,56.17 54.27,67.42 55.1,67.5C55.68,67.55 56.47,64.25 57.07,62.23C57.84,59.64 58.04,53.51 59.08,53.17C59.63,52.99 60.48,54.04 61.05,54.89C61.92,56.19 62.13,59.59 63.06,60.69C63.62,61.36 64.44,61.95 65.02,61.78C65.82,61.55 66.4,58.04 67.03,58.08C67.73,58.12 68.43,63.02 68.99,62.96C69.87,62.86 69.61,51.79 70.98,50.47C71.52,49.95 72.38,49.9 72.94,50.23C73.86,50.78 74.39,52.75 74.94,55.23C76.35,61.57 76.36,74.36 76.91,90.19C78.07,123.62 78.25,246.33 78.91,246.33C79.58,246.33 79.56,115.52 80.88,83.71C81.43,70.47 81.56,60.91 82.87,55.63C83.42,53.43 84.03,52.18 84.85,51.15C85.43,50.41 86.27,49.47 86.84,49.64C87.73,49.91 88.2,55.5 88.82,55.48C89.53,55.45 90.16,47.82 90.8,47.83C91.48,47.84 91.88,56.33 92.8,56.53C93.36,56.65 94.21,55.39 94.76,53.92C96.4,49.5 96.2,24.43 96.77,24.44C97.65,24.46 97.95,94.68 98.73,94.69C99.33,94.7 98.59,58.31 100.74,53.5C101.3,52.26 102.15,52.52 102.71,51.56C103.65,49.94 104.06,44.03 104.72,44.03C105.38,44.03 105.99,51.56 106.68,51.58C107.32,51.59 108.13,44.99 108.69,45.07C110.37,45.3 110.07,83.27 110.65,107.26C111.45,140.21 112.01,224.58 112.64,224.58C113.33,224.58 113.34,113.48 114.6,85.09C115.15,72.59 115.58,64.28 116.61,58.11C117.16,54.81 117.95,50.61 118.58,50.62C119.27,50.63 119.7,59.42 120.57,59.56C121.14,59.65 121.92,56.14 122.55,56.17C123.25,56.2 123.98,58.53 124.53,60.5C125.57,64.22 125.89,71.39 126.52,77.29C127.22,83.86 127.53,98.07 128.5,98.16C129.06,98.21 129.91,94.12 130.49,91.44C131.32,87.6 131.7,81.37 132.46,77.19C133.06,73.86 133.45,70.1 134.46,68.3C135.01,67.32 135.87,66.24 136.43,66.4C137.39,66.67 137.83,71.23 138.43,74.17C139.2,77.93 139.76,87.15 140.39,87.14C141.09,87.13 141.83,70.7 142.4,70.72C143.34,70.76 143.71,115.85 144.38,115.85C145.04,115.85 145.12,80.13 146.39,71.36C146.93,67.6 147.58,65.66 148.35,63.43C148.95,61.72 149.57,59.17 150.35,59.03C150.94,58.93 151.75,61.18 152.31,61.03C153.24,60.79 153.63,53.57 154.3,53.56C154.95,53.55 155.45,58.65 156.27,60.43C156.85,61.7 157.72,61.99 158.27,63.48C159.4,66.52 158.88,76.19 160.24,78.49C160.79,79.42 161.68,80.2 162.23,79.95C163.8,79.25 163.19,64.49 164.21,59.92C164.77,57.44 165.64,54.27 166.2,54.34C167.23,54.47 166.97,74.34 168.18,74.59C168.73,74.7 169.59,72.48 170.16,70.96C171.01,68.71 171.31,62.25 172.15,62.14C172.73,62.06 173.57,64.25 174.13,65.88C175.04,68.5 175.52,76.73 176.12,76.71C176.87,76.68 177.13,59.63 178.09,59.52C178.65,59.45 179.54,62.4 180.09,65.04C181.35,71.09 181.4,95.83 182.06,95.83C182.73,95.83 181.89,66.86 184.07,63.96C184.63,63.22 185.46,63.03 186.04,63.25C186.87,63.57 187.49,67.11 188.05,67.02C189.01,66.86 189.19,54.9 190.01,54.83C190.6,54.78 191.42,58.53 192.02,60.85C192.8,63.88 192.77,69.92 193.98,71.54C194.53,72.28 195.31,72.23 195.97,72.55C196.62,72.86 197.38,72.67 197.93,73.42C199.6,75.73 199.3,86.37 199.93,93.36C200.63,101.1 201.26,117.85 201.9,117.85C202.59,117.85 201.77,91.05 203.9,89.02C204.46,88.49 205.31,89.51 205.87,88.98C207.92,87.04 206.83,62.27 207.86,62.18C208.42,62.13 209.21,67.19 209.85,69.83C210.53,72.63 210.71,77.97 211.83,78.53C212.38,78.81 213.27,78.37 213.82,77.64C215.23,75.77 214.95,63.56 215.79,63.49C216.37,63.44 217.11,69.94 217.79,69.95C218.43,69.96 219,64.36 219.76,64.27C220.36,64.2 221.23,65.95 221.76,67.44C222.73,70.18 222.08,79.87 223.24,80.04C224.55,80.24 228.05,68.07 229.73,65.29C230.47,64.07 231.08,63.87 231.67,62.87C232.44,61.56 233.15,57.84 233.68,57.94C235.16,58.21 229.18,84.64 234.9,99.2C243.62,121.41 287.94,175.24 298.12,171.49C307.29,168.11 297.9,108.93 299.11,93.56C299.62,87.06 300.56,79.72 301.12,79.75C302.11,79.8 302.47,123.06 303.08,123.06C303.8,123.06 303.98,76.95 305.08,63.8C305.63,57.2 306.04,49.16 307.06,48.99C307.62,48.9 308.47,51.34 309.05,53C309.9,55.45 310.43,58.91 311.03,62.47C311.79,66.99 312.42,72 313.01,77.98C313.81,86.14 312.94,104.13 315,106.98C315.56,107.75 316.43,108.12 316.98,107.79C318.63,106.8 318.34,95.46 318.96,88.67C319.67,80.94 319,66.21 320.94,63.87C321.5,63.2 322.39,63 322.94,63.33C324.05,63.98 324.36,67.73 324.91,71.37C326.02,78.76 325.87,105.33 326.91,105.41C327.46,105.45 328.33,95.8 328.89,95.85C330.96,96.05 329.36,206.34 330.9,229.56C331.44,237.78 331.32,244.17 332.86,246.19C333.41,246.92 334.28,247.39 334.87,247C338.53,244.59 335.53,180.47 336.82,163.88C337.37,156.75 338.28,155.99 338.83,148.64C340.26,129.71 339.59,46.71 340.79,46.67C341.34,46.65 341.64,68.26 342.8,68.45C343.35,68.54 344.19,63.97 344.76,64.03C345.59,64.12 346.11,70.6 346.75,74.1C347.44,77.89 348.16,86.01 348.72,85.98C349.67,85.93 349.11,56.85 350.71,51.3C351.26,49.39 351.87,48.34 352.69,47.7C353.27,47.25 354.12,46.87 354.68,47.19C355.71,47.77 356.11,50.95 356.67,53.87C357.67,59.1 357.37,75.96 358.64,76.22C359.19,76.33 360.08,74.43 360.63,72.55C362.04,67.71 361.67,45.06 362.62,45C363.18,44.96 363.4,53.47 364.6,54.39C365.15,54.81 366.03,54.77 366.58,54.28C367.91,53.1 367.66,42.94 368.57,42.81C369.14,42.73 370,44.94 370.55,46.89C371.73,51.08 371.82,67.65 372.55,67.66C373.16,67.67 373.01,54.53 374.51,53.08C375.06,52.54 375.97,52.45 376.52,52.88C377.91,53.95 377.46,65.18 378.49,65.39C379.05,65.51 379.91,62.17 380.48,62.27C381.37,62.43 381.52,70.95 382.45,71.15C383.02,71.27 383.89,70.05 384.45,68.46C386.54,62.57 385.68,22.23 386.42,22.22C387.03,22.21 387.08,47.72 388.41,53.63C388.96,56.07 389.84,56.09 390.39,58.61C391.88,65.48 391.74,98.4 392.38,98.4C393.07,98.4 392.34,52.84 394.35,52.27C394.91,52.11 395.77,55.32 396.34,55.22C397.22,55.06 397.68,47.04 398.32,47.05C399,47.06 399.62,56.31 400.3,56.32C400.95,56.33 401.72,47.94 402.29,47.98C403.15,48.04 402.63,64.75 404.27,67.03C404.82,67.8 405.72,68.22 406.27,67.95C407.39,67.39 407.38,61.35 408.23,59.08C408.81,57.54 409.68,55.3 410.24,55.41C411.39,55.64 411.61,73.17 412.22,73.16C412.96,73.15 412.84,47.96 414.23,47.65C414.77,47.53 415.53,49.87 416.18,51.02C416.85,52.2 417.42,54.48 418.19,54.64C418.78,54.77 419.6,52.96 420.15,53.16C421.21,53.55 421.55,58.73 422.15,62.1C422.91,66.4 423.28,76.86 424.1,76.92C424.68,76.96 425.34,71.63 426.11,69.56C426.71,67.96 427.53,65.36 428.08,65.46C429.25,65.67 429.15,81.03 430.07,86.23C430.63,89.43 431.49,93.93 432.05,93.89C432.97,93.82 433.19,78.53 434.04,72.96C434.61,69.2 435.44,63.57 436.02,63.6C436.83,63.64 437.47,75.06 438,82.11C438.7,91.47 438.17,114.8 439.41,114.87C441.03,114.96 446.53,59.23 448.22,59.29C449.2,59.32 448.98,78.27 449.9,78.37C450.44,78.43 451.23,71.99 451.9,71.99C452.56,71.99 453.3,78.32 453.88,78.28C454.7,78.22 454.5,66.76 455.89,65.33C456.43,64.77 457.3,64.61 457.85,64.97C459,65.73 459.3,73.69 459.86,73.65C460.81,73.58 461.22,48.35 461.82,48.36C462.57,48.37 462.68,88.2 463.81,88.29C464.35,88.33 465.14,82.36 465.77,79.12C466.47,75.48 467.19,72.06 467.77,67.51C468.59,61.11 469.05,44.29 469.74,44.28C470.38,44.28 470.26,61.19 471.74,64.23C472.29,65.35 473.16,64.99 473.71,66.12C475.25,69.32 474.66,87.61 475.7,87.74C476.25,87.81 476.94,82.04 477.68,81.98C478.29,81.93 479.1,85.75 479.67,85.61C482.04,85.04 480.87,13.01 481.66,13C482.25,12.99 482.35,45.16 483.64,52.96C484.19,56.27 484.58,59.06 485.63,59.91C486.18,60.35 487.05,59.58 487.6,60.03C488.67,60.9 489.03,63.17 489.61,67.24C492.44,87.15 490.87,246.57 491.56,246.57C492.19,246.57 492.57,132.77 493.56,96.85C494.12,76.65 493.9,49.8 495.53,49.53C496.09,49.44 496.63,53.75 497.54,54.64C498.1,55.19 498.88,54.98 499.5,55.36C500.21,55.8 500.95,57.43 501.51,57.25C502.58,56.9 502.9,51.29 503.47,47.18C504.35,40.8 504.86,22.58 505.47,22.59C506.21,22.6 506.85,44.62 507.44,58.35C508.24,76.97 508.68,104.79 509.44,124.18C510.04,139.54 510.79,150.77 511.41,165.47C512.12,182.32 512.84,219.74 513.4,219.73C514.34,219.72 511.43,68.92 515.38,67.67C515.97,67.48 516.82,70.56 517.37,70.42C518.63,70.09 518.54,57.65 519.34,52.66C519.93,48.98 520.59,43.18 521.33,43.14C521.94,43.11 522.33,48.82 523.32,49.35C523.88,49.65 524.74,48.48 525.3,48.77C526.26,49.27 526.73,52.09 527.29,54.56C528.23,58.69 528.07,68.2 529.26,71.49C529.81,73.01 530.48,74.3 531.26,74.55C531.85,74.74 532.68,74.43 533.23,73.78C534.4,72.4 534.53,64.29 535.23,64.27C535.86,64.26 536.61,71.96 537.21,71.93C537.98,71.89 538.44,62.67 539.22,59.03C539.81,56.31 540.63,51.92 541.17,51.98C542.28,52.09 542.59,82.5 543.19,82.49C543.95,82.48 544.41,33.63 545.14,33.62C545.75,33.61 546.48,56.4 547.14,67.77C547.8,79.11 548.47,101.73 549.1,101.73C549.8,101.73 550.3,71.9 551.1,60.29C551.68,51.85 552.4,38.45 553.07,38.45C553.73,38.45 553.37,58.48 555.07,59.43C555.62,59.74 556.44,58.31 557.04,58.46C557.79,58.64 558.48,61.33 559.03,61.2C560.12,60.93 560.45,48.14 561.01,48.17C561.95,48.22 560.56,82.83 563,85.13C563.56,85.66 564.42,84.61 564.98,85.12C567.02,87.01 566.27,111.81 566.86,111.8C567.62,111.79 567.87,76.68 568.95,66.49C569.51,61.25 569.73,55.14 570.93,54.66C571.48,54.44 572.33,55 572.92,56.17C577.17,64.56 573.9,184.08 574.89,184.1C575.45,184.11 576.31,159.43 576.89,143.66C577.71,121.48 578.02,63.56 578.85,63.55C579.43,63.54 580.04,103.11 580.86,103.13C581.44,103.14 582.11,82.99 582.84,82.98C583.46,82.97 583.91,97.29 584.85,97.41C585.41,97.48 586.26,94.87 586.81,92.62C587.96,87.9 588.21,69.88 588.82,69.89C589.57,69.9 589.2,103.95 590.77,104.29C591.32,104.41 591.94,100.86 592.77,100.52C593.35,100.29 594.18,101.52 594.73,101.15C596.73,99.8 595.72,80.47 596.73,74.22C597.28,70.8 598.12,66.37 598.7,66.41C599.52,66.46 599.94,82.1 600.7,82.13C601.3,82.15 602.13,72.26 602.67,72.31C604.04,72.42 604.05,112.48 604.66,135.22C605.39,162.13 606.05,223.39 606.64,223.39C607.43,223.39 606.93,61.53 608.62,61.44C609.17,61.41 609.8,78.59 610.61,78.63C611.19,78.66 612.02,69.88 612.59,69.92C613.46,69.98 613.6,90.56 614.58,90.66C615.14,90.72 615.98,84.19 616.55,84.24C617.44,84.32 617.98,100.75 618.56,100.73C619.38,100.7 618.21,69.9 620.52,67.7C621.09,67.16 621.89,67.51 622.53,67.68C623.22,67.86 623.82,68.58 624.5,68.81C625.15,69.03 625.96,69.48 626.51,69.09C627.68,68.27 627.93,60.13 628.47,60.18C629.82,60.3 629.87,95.82 630.48,116.68C631.23,142.55 631.85,203.65 632.44,203.65C633.21,203.65 633.22,55.28 634.43,55.25C634.97,55.24 635.79,74.01 636.39,85.12C637.15,99.11 637.79,117.04 638.4,132.56Q638.99,147.51 640,176.58" style="vector-effect: none; fill: none; stroke: rgb(31, 119, 180); stroke-opacity: 1; stroke-width: 2px; opacity: 1;"/></g><g class="points"/><g class="text"/></g></g></g></g><path class="xlines-above crisp" d="M79,320.5H720" style="fill: none; stroke-width: 1px; stroke: rgb(36, 36, 36); stroke-opacity: 1;"/><path class="ylines-above crisp" d="M79.5,60V320" style="fill: none; stroke-width: 1px; stroke: rgb(36, 36, 36); stroke-opacity: 1;"/><g class="overlines-above"/><g class="xaxislayer-above"><path class="xtick ticks crisp" d="M0,321v5" transform="translate(191.66,0)" style="stroke: rgb(68, 68, 68); stroke-opacity: 1; stroke-width: 1px;"/><path class="xtick ticks crisp" d="M0,321v5" transform="translate(310.7,0)" style="stroke: rgb(68, 68, 68); stroke-opacity: 1; stroke-width: 1px;"/><path class="xtick ticks crisp" d="M0,321v5" transform="translate(429.74,0)" style="stroke: rgb(68, 68, 68); stroke-opacity: 1; stroke-width: 1px;"/><path class="xtick ticks crisp" d="M0,321v5" transform="translate(548.78,0)" style="stroke: rgb(68, 68, 68); stroke-opacity: 1; stroke-width: 1px;"/><path class="xtick ticks crisp" d="M0,321v5" transform="translate(667.82,0)" style="stroke: rgb(68, 68, 68); stroke-opacity: 1; stroke-width: 1px;"/><g class="xtick"><text text-anchor="middle" x="0" y="340.4" transform="translate(191.66,0)" style="font-family: 'Open Sans', verdana, arial, sans-serif; font-size: 12px; fill: rgb(36, 36, 36); fill-opacity: 1; white-space: pre; opacity: 1;"><tspan class="line" dy="0em" x="0" y="340.4">12:00</tspan><tspan class="line" dy="1.3em" x="0" y="340.4">May 9, 2024</tspan></text></g><g class="xtick"><text text-anchor="middle" x="0" y="340.4" style="font-family: 'Open Sans', verdana, arial, sans-serif; font-size: 12px; fill: rgb(36, 36, 36); fill-opacity: 1; white-space: pre; opacity: 1;" transform="translate(310.7,0)">13:00</text></g><g class="xtick"><text text-anchor="middle" x="0" y="340.4" style="font-family: 'Open Sans', verdana, arial, sans-serif; font-size: 12px; fill: rgb(36, 36, 36); fill-opacity: 1; white-space: pre; opacity: 1;" transform="translate(429.74,0)">14:00</text></g><g class="xtick"><text text-anchor="middle" x="0" y="340.4" style="font-family: 'Open Sans', verdana, arial, sans-serif; font-size: 12px; fill: rgb(36, 36, 36); fill-opacity: 1; white-space: pre; opacity: 1;" transform="translate(548.78,0)">15:00</text></g><g class="xtick"><text text-anchor="middle" x="0" y="340.4" style="font-family: 'Open Sans', verdana, arial, sans-serif; font-size: 12px; fill: rgb(36, 36, 36); fill-opacity: 1; white-space: pre; opacity: 1;" transform="translate(667.82,0)">16:00</text></g></g><g class="yaxislayer-above"><path class="ytick ticks crisp" d="M79,0h-5" transform="translate(0,310.49)" style="stroke: rgb(68, 68, 68); stroke-opacity: 1; stroke-width: 1px;"/><path class="ytick ticks crisp" d="M79,0h-5" transform="translate(0,259.08000000000004)" style="stroke: rgb(68, 68, 68); stroke-opacity: 1; stroke-width: 1px;"/><path class="ytick ticks crisp" d="M79,0h-5" transform="translate(0,207.68)" style="stroke: rgb(68, 68, 68); stroke-opacity: 1; stroke-width: 1px;"/><path class="ytick ticks crisp" d="M79,0h-5" transform="translate(0,156.26999999999998)" style="stroke: rgb(68, 68, 68); stroke-opacity: 1; stroke-width: 1px;"/><path class="ytick ticks crisp" d="M79,0h-5" transform="translate(0,104.87)" style="stroke: rgb(68, 68, 68); stroke-opacity: 1; stroke-width: 1px;"/><g class="ytick"><text text-anchor="end" x="71.6" y="4.199999999999999" transform="translate(0,310.49)" style="font-family: 'Open Sans', verdana, arial, sans-serif; font-size: 12px; fill: rgb(36, 36, 36); fill-opacity: 1; white-space: pre; opacity: 1;">0</text></g><g class="ytick"><text text-anchor="end" x="71.6" y="4.199999999999999" style="font-family: 'Open Sans', verdana, arial, sans-serif; font-size: 12px; fill: rgb(36, 36, 36); fill-opacity: 1; white-space: pre; opacity: 1;" transform="translate(0,259.08000000000004)">5</text></g><g class="ytick"><text text-anchor="end" x="71.6" y="4.199999999999999" style="font-family: 'Open Sans', verdana, arial, sans-serif; font-size: 12px; fill: rgb(36, 36, 36); fill-opacity: 1; white-space: pre; opacity: 1;" transform="translate(0,207.68)">10</text></g><g class="ytick"><text text-anchor="end" x="71.6" y="4.199999999999999" style="font-family: 'Open Sans', verdana, arial, sans-serif; font-size: 12px; fill: rgb(36, 36, 36); fill-opacity: 1; white-space: pre; opacity: 1;" transform="translate(0,156.26999999999998)">15</text></g><g class="ytick"><text text-anchor="end" x="71.6" y="4.199999999999999" style="font-family: 'Open Sans', verdana, arial, sans-serif; font-size: 12px; fill: rgb(36, 36, 36); fill-opacity: 1; white-space: pre; opacity: 1;" transform="translate(0,104.87)">20</text></g></g><g class="overaxes-above"/></g></g><g class="polarlayer"/><g class="smithlayer"/><g class="ternarylayer"/><g class="geolayer"/><g class="funnelarealayer"/><g class="pielayer"/><g class="iciclelayer"/><g class="treemaplayer"/><g class="sunburstlayer"/><g class="glimages"/><defs id="topdefs-ee1945"><g class="clips"/></defs><g class="layer-above"><g class="imagelayer"/><g class="shapelayer"/></g><g class="infolayer"><g class="g-gtitle"/><g class="g-xtitle"><text class="xtitle" x="400" y="382.8" text-anchor="middle" style="opacity: 1; font-family: 'Open Sans', verdana, arial, sans-serif; font-size: 14px; fill: rgb(36, 36, 36); fill-opacity: 1; white-space: pre;">Time (hh:min)</text></g><g class="g-ytitle"><text class="ytitle" transform="rotate(-90,36.928125,190)" x="36.928125" y="190" text-anchor="middle" style="opacity: 1; font-family: 'Open Sans', verdana, arial, sans-serif; font-size: 14px; fill: rgb(36, 36, 36); fill-opacity: 1; white-space: pre;">Speed (km/h)</text></g></g></svg>