<svg class="main-svg" xmlns="http://www.w3.org/2000/svg" xmlns:xlink="http://www.w3.org/1999/xlink" width="1000" height="500" style="" viewBox="0 0 1000 500"><rect x="0" y="0" width="1000" height="500" style="fill: rgb(255, 255, 255); fill-opacity: 0;"/><defs id="defs-ef0e19"><g class="clips"><clipPath id="clipef0e19xyplot" class="plotclip"><rect width="946" height="440"/></clipPath><clipPath class="axesclip" id="clipef0e19x"><rect x="48" y="0" width="946" height="500"/></clipPath><clipPath class="axesclip" id="clipef0e19y"><rect x="0" y="0" width="1000" height="440"/></clipPath><clipPath class="axesclip" id="clipef0e19xy"><rect x="48" y="0" width="946" height="440"/></clipPath></g><g class="gradients"/><g class="patterns"/></defs><g class="bglayer"/><g class="layer-below"><g class="imagelayer"/><g class="shapelayer"/></g><g class="cartesianlayer"><g class="subplot xy"><g class="layer-subplot"><g class="shapelayer"/><g class="imagelayer"/></g><g class="minor-gridlayer"><g class="x"/><g class="y"/></g><g class="gridlayer"><g class="x"/><g class="y"/></g><g class="zerolinelayer"/><g class="layer-between"><g class="shapelayer"/><g class="imagelayer"/></g><path class="xlines-below"/><path class="ylines-below"/><g class="overlines-below"/><g class="xaxislayer-below"/><g class="yaxislayer-below"/><g class="overaxes-below"/><g class="overplot"><g class="xy" transform="translate(48,0)" clip-path="url(#clipef0e19xyplot)"><g class="scatterlayer mlayer"><g class="trace scatter trace558eb1" style="stroke-miterlimit: 2; opacity: 1;"><g class="fills"/><g class="errorbars"/><g class="lines"><path class="js-line" d="M0,205.51Q11,281.7 18.92,282.78C24.44,283.53 31.53,260.25 37.84,248.98C44.15,237.71 51.02,228.27 56.76,215.17C63.96,198.74 66.28,162.38 75.68,157.22C81,154.3 89.37,165.58 94.6,162.05C108.68,152.56 107.26,21.99 113.52,22C119.88,22.01 117.88,154.1 132.44,166.88C137.68,171.48 145.52,169.33 151.36,166.88C158.34,163.95 165.04,145.9 170.28,147.56C181.21,151.02 182.59,263.36 189.2,263.46C195.25,263.56 201.73,166.91 208.12,166.88C214.35,166.85 218.98,257.63 227.04,258.63C232.53,259.31 239.28,219.8 245.96,219.4C251.96,219.04 258.1,240.46 264.88,248.98C270.83,256.45 276.82,265.36 283.8,268.29C289.64,270.74 296.74,270.32 302.72,268.29C309.43,266.01 314.99,255.16 321.64,253.8C327.66,252.57 335.3,253.4 340.56,258.63C350.87,268.88 349.02,322.99 359.48,331.07C364.74,335.13 372.09,331.07 378.4,331.07C384.71,331.07 391.79,334.31 397.32,331.07C405.23,326.44 409.26,298.2 416.24,297.27C422.07,296.49 428.25,312.61 435.16,316.59C441.03,319.97 448.85,315.88 454.08,321.41C465.82,333.83 463.49,415.72 473,418C478.31,419.27 486.46,404.63 491.92,393.85C500.17,377.55 504.15,326.47 510.84,326.24C516.84,326.03 520.99,375.89 529.76,379.37C535.14,381.51 542.23,370.43 548.68,369.71C554.86,369.02 561.42,375.23 567.6,374.54C574.05,373.82 581.29,371.94 586.52,364.88C598.3,348.97 595.53,261.1 605.44,258.63C610.72,257.31 619.13,284.33 624.36,282.78C638.15,278.7 636.86,70.31 643.28,70.29C649.48,70.27 648.89,264.39 662.2,268.29C667.43,269.82 675.52,254.32 681.12,244.15C688.72,230.35 691.67,202.5 700.04,191.02C705.48,183.56 713.73,174.48 718.96,176.54C730.34,181.01 729.5,286.59 737.88,287.61C743.31,288.27 749.59,256.01 756.8,244.15C762.54,234.7 769.87,220.16 775.72,220.8C782.66,221.56 789.13,243.01 794.64,258.63C802.63,281.28 803.38,329.53 813.56,345.56C818.83,353.86 826.86,353.19 832.48,360.05C840.03,369.26 845.63,399.15 851.4,398.68C858.52,398.1 862.28,351.39 870.32,335.9C875.82,325.31 883.87,322.99 889.24,311.76C898.13,293.14 902.41,229.42 908.16,229.66C915.34,229.96 917.32,358.24 927.08,360.05Q932.37,361.03 946,326.24" style="vector-effect: none; fill: none; stroke: rgb(234, 74, 98); stroke-opacity: 1; stroke-width: 2px; opacity: 1;"/></g><g class="points"/><g class="text"/></g></g></g></g><g class="zerolinelayer-above"/><path class="xlines-above crisp" d="M47,440.5H994" style="fill: none; stroke-width: 1px; stroke: rgb(36, 36, 36); stroke-opacity: 1;"/><path class="ylines-above crisp" d="M47.5,0V440" style="fill: none; stroke-width: 1px; stroke: rgb(36, 36, 36); stroke-opacity: 1;"/><g class="overlines-above"/><g class="xaxislayer-above"><path class="xtick ticks crisp" d="M0,441v5" transform="translate(48,0)" style="stroke: rgb(68, 68, 68); stroke-opacity: 1; stroke-width: 1px;"/><path class="xtick ticks crisp" d="M0,441v5" transform="translate(66.92,0)" style="stroke: rgb(68, 68, 68); stroke-opacity: 1; stroke-width: 1px;"/><path class="xtick ticks crisp" d="M0,441v5" transform="translate(85.84,0)" style="stroke: rgb(68, 68, 68); stroke-opacity: 1; stroke-width: 1px;"/><path class="xtick ticks crisp" d="M0,441v5" transform="translate(104.75999999999999,0)" style="stroke: rgb(68, 68, 68); stroke-opacity: 1; stroke-width: 1px;"/><path class="xtick ticks crisp" d="M0,441v5" transform="translate(123.68,0)" style="stroke: rgb(68, 68, 68); stroke-opacity: 1; stroke-width: 1px;"/><path class="xtick ticks crisp" d="M0,441v5" transform="translate(142.6,0)" style="stroke: rgb(68, 68, 68); stroke-opacity: 1; stroke-width: 1px;"/><path class="xtick ticks crisp" d="M0,441v5" transform="translate(161.51999999999998,0)" style="stroke: rgb(68, 68, 68); stroke-opacity: 1; stroke-width: 1px;"/><path class="xtick ticks crisp" d="M0,441v5" transform="translate(180.44,0)" style="stroke: rgb(68, 68, 68); stroke-opacity: 1; stroke-width: 1px;"/><path class="xtick ticks crisp" d="M0,441v5" transform="translate(199.36,0)" style="stroke: rgb(68, 68, 68); stroke-opacity: 1; stroke-width: 1px;"/><path class="xtick ticks crisp" d="M0,441v5" transform="translate(218.28,0)" style="stroke: rgb(68, 68, 68); stroke-opacity: 1; stroke-width: 1px;"/><path class="xtick ticks crisp" d="M0,441v5" transform="translate(237.2,0)" style="stroke: rgb(68, 68, 68); stroke-opacity: 1; stroke-width: 1px;"/><path class="xtick ticks crisp" d="M0,441v5" transform="translate(256.12,0)" style="stroke: rgb(68, 68, 68); stroke-opacity: 1; stroke-width: 1px;"/><path class="xtick ticks crisp" d="M0,441v5" transform="translate(275.03999999999996,0)" style="stroke: rgb(68, 68, 68); stroke-opacity: 1; stroke-width: 1px;"/><path class="xtick ticks crisp" d="M0,441v5" transform="translate(293.96000000000004,0)" style="stroke: rgb(68, 68, 68); stroke-opacity: 1; stroke-width: 1px;"/><path class="xtick ticks crisp" d="M0,441v5" transform="translate(312.88,0)" style="stroke: rgb(68, 68, 68); stroke-opacity: 1; stroke-width: 1px;"/><path class="xtick ticks crisp" d="M0,441v5" transform="translate(331.8,0)" style="stroke: rgb(68, 68, 68); stroke-opacity: 1; stroke-width: 1px;"/><path class="xtick ticks crisp" d="M0,441v5" transform="translate(350.72,0)" style="stroke: rgb(68, 68, 68); stroke-opacity: 1; stroke-width: 1px;"/><path class="xtick ticks crisp" d="M0,441v5" transform="translate(369.64,0)" style="stroke: rgb(68, 68, 68); stroke-opacity: 1; stroke-width: 1px;"/><path class="xtick ticks crisp" d="M0,441v5" transform="translate(388.56,0)" style="stroke: rgb(68, 68, 68); stroke-opacity: 1; stroke-width: 1px;"/><path class="xtick ticks crisp" d="M0,441v5" transform="translate(407.48,0)" style="stroke: rgb(68, 68, 68); stroke-opacity: 1; stroke-width: 1px;"/><path class="xtick ticks crisp" d="M0,441v5" transform="translate(426.4,0)" style="stroke: rgb(68, 68, 68); stroke-opacity: 1; stroke-width: 1px;"/><path class="xtick ticks crisp" d="M0,441v5" transform="translate(445.32,0)" style="stroke: rgb(68, 68, 68); stroke-opacity: 1; stroke-width: 1px;"/><path class="xtick ticks crisp" d="M0,441v5" transform="translate(464.24,0)" style="stroke: rgb(68, 68, 68); stroke-opacity: 1; stroke-width: 1px;"/><path class="xtick ticks crisp" d="M0,441v5" transform="translate(483.16,0)" style="stroke: rgb(68, 68, 68); stroke-opacity: 1; stroke-width: 1px;"/><path class="xtick ticks crisp" d="M0,441v5" transform="translate(502.08,0)" style="stroke: rgb(68, 68, 68); stroke-opacity: 1; stroke-width: 1px;"/><path class="xtick ticks crisp" d="M0,441v5" transform="translate(521,0)" style="stroke: rgb(68, 68, 68); stroke-opacity: 1; stroke-width: 1px;"/><path class="xtick ticks crisp" d="M0,441v5" transform="translate(539.9200000000001,0)" style="stroke: rgb(68, 68, 68); stroke-opacity: 1; stroke-width: 1px;"/><path class="xtick ticks crisp" d="M0,441v5" transform="translate(558.8399999999999,0)" style="stroke: rgb(68, 68, 68); stroke-opacity: 1; stroke-width: 1px;"/><path class="xtick ticks crisp" d="M0,441v5" transform="translate(577.76,0)" style="stroke: rgb(68, 68, 68); stroke-opacity: 1; stroke-width: 1px;"/><path class="xtick ticks crisp" d="M0,441v5" transform="translate(596.68,0)" style="stroke: rgb(68, 68, 68); stroke-opacity: 1; stroke-width: 1px;"/><path class="xtick ticks crisp" d="M0,441v5" transform="translate(615.6,0)" style="stroke: rgb(68, 68, 68); stroke-opacity: 1; stroke-width: 1px;"/><path class="xtick ticks crisp" d="M0,441v5" transform="translate(634.52,0)" style="stroke: rgb(68, 68, 68); stroke-opacity: 1; stroke-width: 1px;"/><path class="xtick ticks crisp" d="M0,441v5" transform="translate(653.44,0)" style="stroke: rgb(68, 68, 68); stroke-opacity: 1; stroke-width: 1px;"/><path class="xtick ticks crisp" d="M0,441v5" transform="translate(672.36,0)" style="stroke: rgb(68, 68, 68); stroke-opacity: 1; stroke-width: 1px;"/><path class="xtick ticks crisp" d="M0,441v5" transform="translate(691.28,0)" style="stroke: rgb(68, 68, 68); stroke-opacity: 1; stroke-width: 1px;"/><path class="xtick ticks crisp" d="M0,441v5" transform="translate(710.2,0)" style="stroke: rgb(68, 68, 68); stroke-opacity: 1; stroke-width: 1px;"/><path class="xtick ticks crisp" d="M0,441v5" transform="translate(729.12,0)" style="stroke: rgb(68, 68, 68); stroke-opacity: 1; stroke-width: 1px;"/><path class="xtick ticks crisp" d="M0,441v5" transform="translate(748.04,0)" style="stroke: rgb(68, 68, 68); stroke-opacity: 1; stroke-width: 1px;"/><path class="xtick ticks crisp" d="M0,441v5" transform="translate(766.96,0)" style="stroke: rgb(68, 68, 68); stroke-opacity: 1; stroke-width: 1px;"/><path class="xtick ticks crisp" d="M0,441v5" transform="translate(785.88,0)" style="stroke: rgb(68, 68, 68); stroke-opacity: 1; stroke-width: 1px;"/><path class="xtick ticks crisp" d="M0,441v5" transform="translate(804.8,0)" style="stroke: rgb(68, 68, 68); stroke-opacity: 1; stroke-width: 1px;"/><path class="xtick ticks crisp" d="M0,441v5" transform="translate(823.72,0)" style="stroke: rgb(68, 68, 68); stroke-opacity: 1; stroke-width: 1px;"/><path class="xtick ticks crisp" d="M0,441v5" transform="translate(842.64,0)" style="stroke: rgb(68, 68, 68); stroke-opacity: 1; stroke-width: 1px;"/><path class="xtick ticks crisp" d="M0,441v5" transform="translate(861.56,0)" style="stroke: rgb(68, 68, 68); stroke-opacity: 1; stroke-width: 1px;"/><path class="xtick ticks crisp" d="M0,441v5" transform="translate(880.48,0)" style="stroke: rgb(68, 68, 68); stroke-opacity: 1; stroke-width: 1px;"/><path class="xtick ticks crisp" d="M0,441v5" transform="translate(899.4,0)" style="stroke: rgb(68, 68, 68); stroke-opacity: 1; stroke-width: 1px;"/><path class="xtick ticks crisp" d="M0,441v5" transform="translate(918.32,0)" style="stroke: rgb(68, 68, 68); stroke-opacity: 1; stroke-width: 1px;"/><path class="xtick ticks crisp" d="M0,441v5" transform="translate(937.24,0)" style="stroke: rgb(68, 68, 68); stroke-opacity: 1; stroke-width: 1px;"/><path class="xtick ticks crisp" d="M0,441v5" transform="translate(956.16,0)" style="stroke: rgb(68, 68, 68); stroke-opacity: 1; stroke-width: 1px;"/><path class="xtick ticks crisp" d="M0,441v5" transform="translate(975.08,0)" style="stroke: rgb(68, 68, 68); stroke-opacity: 1; stroke-width: 1px;"/><path class="xtick ticks crisp" d="M0,441v5" transform="translate(994,0)" style="stroke: rgb(68, 68, 68); stroke-opacity: 1; stroke-width: 1px;"/><g class="xtick"><text text-anchor="end" x="-2.0999999999999996" y="456.79999999999995" transform="translate(48,0) rotate(-90,-2.0999999999999996,450.79999999999995)" style="font-family: 'Open Sans', verdana, arial, sans-serif; font-size: 12px; fill: rgb(36, 36, 36); fill-opacity: 1; white-space: pre;">02</text></g><g class="xtick"><text text-anchor="end" x="-2.0999999999999996" y="456.79999999999995" transform="translate(66.92,0) rotate(-90,-2.0999999999999996,450.79999999999995)" style="font-family: 'Open Sans', verdana, arial, sans-serif; font-size: 12px; fill: rgb(36, 36, 36); fill-opacity: 1; white-space: pre;">03</text></g><g class="xtick"><text text-anchor="end" x="-2.0999999999999996" y="456.79999999999995" transform="translate(85.84,0) rotate(-90,-2.0999999999999996,450.79999999999995)" style="font-family: 'Open Sans', verdana, arial, sans-serif; font-size: 12px; fill: rgb(36, 36, 36); fill-opacity: 1; white-space: pre;">04</text></g><g class="xtick"><text text-anchor="end" x="-2.0999999999999996" y="456.79999999999995" transform="translate(104.75999999999999,0) rotate(-90,-2.0999999999999996,450.79999999999995)" style="font-family: 'Open Sans', verdana, arial, sans-serif; font-size: 12px; fill: rgb(36, 36, 36); fill-opacity: 1; white-space: pre;">05</text></g><g class="xtick"><text text-anchor="end" x="-2.0999999999999996" y="456.79999999999995" transform="translate(123.68,0) rotate(-90,-2.0999999999999996,450.79999999999995)" style="font-family: 'Open Sans', verdana, arial, sans-serif; font-size: 12px; fill: rgb(36, 36, 36); fill-opacity: 1; white-space: pre;">06</text></g><g class="xtick"><text text-anchor="end" x="-2.0999999999999996" y="456.79999999999995" transform="translate(142.6,0) rotate(-90,-2.0999999999999996,450.79999999999995)" style="font-family: 'Open Sans', verdana, arial, sans-serif; font-size: 12px; fill: rgb(36, 36, 36); fill-opacity: 1; white-space: pre;">07</text></g><g class="xtick"><text text-anchor="end" x="-2.0999999999999996" y="456.79999999999995" transform="translate(161.51999999999998,0) rotate(-90,-2.0999999999999996,450.79999999999995)" style="font-family: 'Open Sans', verdana, arial, sans-serif; font-size: 12px; fill: rgb(36, 36, 36); fill-opacity: 1; white-space: pre;">08</text></g><g class="xtick"><text text-anchor="end" x="-2.0999999999999996" y="456.79999999999995" transform="translate(180.44,0) rotate(-90,-2.0999999999999996,450.79999999999995)" style="font-family: 'Open Sans', verdana, arial, sans-serif; font-size: 12px; fill: rgb(36, 36, 36); fill-opacity: 1; white-space: pre;">09</text></g><g class="xtick"><text text-anchor="end" x="-2.0999999999999996" y="456.79999999999995" transform="translate(199.36,0) rotate(-90,-2.0999999999999996,450.79999999999995)" style="font-family: 'Open Sans', verdana, arial, sans-serif; font-size: 12px; fill: rgb(36, 36, 36); fill-opacity: 1; white-space: pre;">10</text></g><g class="xtick"><text text-anchor="end" x="-2.0999999999999996" y="456.79999999999995" transform="translate(218.28,0) rotate(-90,-2.0999999999999996,450.79999999999995)" style="font-family: 'Open Sans', verdana, arial, sans-serif; font-size: 12px; fill: rgb(36, 36, 36); fill-opacity: 1; white-space: pre;">11</text></g><g class="xtick"><text text-anchor="end" x="-2.0999999999999996" y="456.79999999999995" transform="translate(237.2,0) rotate(-90,-2.0999999999999996,450.79999999999995)" style="font-family: 'Open Sans', verdana, arial, sans-serif; font-size: 12px; fill: rgb(36, 36, 36); fill-opacity: 1; white-space: pre;">12</text></g><g class="xtick"><text text-anchor="end" x="-2.0999999999999996" y="456.79999999999995" transform="translate(256.12,0) rotate(-90,-2.0999999999999996,450.79999999999995)" style="font-family: 'Open Sans', verdana, arial, sans-serif; font-size: 12px; fill: rgb(36, 36, 36); fill-opacity: 1; white-space: pre;">13</text></g><g class="xtick"><text text-anchor="end" x="-2.0999999999999996" y="456.79999999999995" transform="translate(275.03999999999996,0) rotate(-90,-2.0999999999999996,450.79999999999995)" style="font-family: 'Open Sans', verdana, arial, sans-serif; font-size: 12px; fill: rgb(36, 36, 36); fill-opacity: 1; white-space: pre;">14</text></g><g class="xtick"><text text-anchor="end" x="-2.0999999999999996" y="456.79999999999995" transform="translate(293.96000000000004,0) rotate(-90,-2.0999999999999996,450.79999999999995)" style="font-family: 'Open Sans', verdana, arial, sans-serif; font-size: 12px; fill: rgb(36, 36, 36); fill-opacity: 1; white-space: pre;">15</text></g><g class="xtick"><text text-anchor="end" x="-2.0999999999999996" y="456.79999999999995" transform="translate(312.88,0) rotate(-90,-2.0999999999999996,450.79999999999995)" style="font-family: 'Open Sans', verdana, arial, sans-serif; font-size: 12px; fill: rgb(36, 36, 36); fill-opacity: 1; white-space: pre;">16</text></g><g class="xtick"><text text-anchor="end" x="-2.0999999999999996" y="456.79999999999995" transform="translate(331.8,0) rotate(-90,-2.0999999999999996,450.79999999999995)" style="font-family: 'Open Sans', verdana, arial, sans-serif; font-size: 12px; fill: rgb(36, 36, 36); fill-opacity: 1; white-space: pre;">17</text></g><g class="xtick"><text text-anchor="end" x="-2.0999999999999996" y="456.79999999999995" transform="translate(350.72,0) rotate(-90,-2.0999999999999996,450.79999999999995)" style="font-family: 'Open Sans', verdana, arial, sans-serif; font-size: 12px; fill: rgb(36, 36, 36); fill-opacity: 1; white-space: pre;">18</text></g><g class="xtick"><text text-anchor="end" x="-2.0999999999999996" y="456.79999999999995" transform="translate(369.64,0) rotate(-90,-2.0999999999999996,450.79999999999995)" style="font-family: 'Open Sans', verdana, arial, sans-serif; font-size: 12px; fill: rgb(36, 36, 36); fill-opacity: 1; white-space: pre;">19</text></g><g class="xtick"><text text-anchor="end" x="-2.0999999999999996" y="456.79999999999995" transform="translate(388.56,0) rotate(-90,-2.0999999999999996,450.79999999999995)" style="font-family: 'Open Sans', verdana, arial, sans-serif; font-size: 12px; fill: rgb(36, 36, 36); fill-opacity: 1; white-space: pre;">20</text></g><g class="xtick"><text text-anchor="end" x="-2.0999999999999996" y="456.79999999999995" transform="translate(407.48,0) rotate(-90,-2.0999999999999996,450.79999999999995)" style="font-family: 'Open Sans', verdana, arial, sans-serif; font-size: 12px; fill: rgb(36, 36, 36); fill-opacity: 1; white-space: pre;">21</text></g><g class="xtick"><text text-anchor="end" x="-2.0999999999999996" y="456.79999999999995" transform="translate(426.4,0) rotate(-90,-2.0999999999999996,450.79999999999995)" style="font-family: 'Open Sans', verdana, arial, sans-serif; font-size: 12px; fill: rgb(36, 36, 36); fill-opacity: 1; white-space: pre;">22</text></g><g class="xtick"><text text-anchor="end" x="-2.0999999999999996" y="456.79999999999995" transform="translate(445.32,0) rotate(-90,-2.0999999999999996,450.79999999999995)" style="font-family: 'Open Sans', verdana, arial, sans-serif; font-size: 12px; fill: rgb(36, 36, 36); fill-opacity: 1; white-space: pre;">23</text></g><g class="xtick"><text text-anchor="end" x="-2.0999999999999996" y="456.79999999999995" transform="translate(464.24,0) rotate(-90,-2.0999999999999996,450.79999999999995)" style="font-family: 'Open Sans', verdana, arial, sans-serif; font-size: 12px; fill: rgb(36, 36, 36); fill-opacity: 1; white-space: pre;">24</text></g><g class="xtick"><text text-anchor="end" x="-2.0999999999999996" y="456.79999999999995" transform="translate(483.16,0) rotate(-90,-2.0999999999999996,450.79999999999995)" style="font-family: 'Open Sans', verdana, arial, sans-serif; font-size: 12px; fill: rgb(36, 36, 36); fill-opacity: 1; white-space: pre;">25</text></g><g class="xtick"><text text-anchor="end" x="-2.0999999999999996" y="456.79999999999995" transform="translate(502.08,0) rotate(-90,-2.0999999999999996,450.79999999999995)" style="font-family: 'Open Sans', verdana, arial, sans-serif; font-size: 12px; fill: rgb(36, 36, 36); fill-opacity: 1; white-space: pre;">26</text></g><g class="xtick"><text text-anchor="end" x="-2.0999999999999996" y="456.79999999999995" transform="translate(521,0) rotate(-90,-2.0999999999999996,450.79999999999995)" style="font-family: 'Open Sans', verdana, arial, sans-serif; font-size: 12px; fill: rgb(36, 36, 36); fill-opacity: 1; white-space: pre;">27</text></g><g class="xtick"><text text-anchor="end" x="-2.0999999999999996" y="456.79999999999995" transform="translate(539.9200000000001,0) rotate(-90,-2.0999999999999996,450.79999999999995)" style="font-family: 'Open Sans', verdana, arial, sans-serif; font-size: 12px; fill: rgb(36, 36, 36); fill-opacity: 1; white-space: pre;">28</text></g><g class="xtick"><text text-anchor="end" x="-2.0999999999999996" y="456.79999999999995" transform="translate(558.8399999999999,0) rotate(-90,-2.0999999999999996,450.79999999999995)" style="font-family: 'Open Sans', verdana, arial, sans-serif; font-size: 12px; fill: rgb(36, 36, 36); fill-opacity: 1; white-space: pre;">29</text></g><g class="xtick"><text text-anchor="end" x="-2.0999999999999996" y="456.79999999999995" transform="translate(577.76,0) rotate(-90,-2.0999999999999996,450.79999999999995)" style="font-family: 'Open Sans', verdana, arial, sans-serif; font-size: 12px; fill: rgb(36, 36, 36); fill-opacity: 1; white-space: pre;">30</text></g><g class="xtick"><text text-anchor="end" x="-2.0999999999999996" y="456.79999999999995" transform="translate(596.68,0) rotate(-90,-2.0999999999999996,450.79999999999995)" style="font-family: 'Open Sans', verdana, arial, sans-serif; font-size: 12px; fill: rgb(36, 36, 36); fill-opacity: 1; white-space: pre;">31</text></g><g class="xtick"><text text-anchor="end" x="-2.0999999999999996" y="456.79999999999995" transform="translate(615.6,0) rotate(-90,-2.0999999999999996,450.79999999999995)" style="font-family: 'Open Sans', verdana, arial, sans-serif; font-size: 12px; fill: rgb(36, 36, 36); fill-opacity: 1; white-space: pre;">32</text></g><g class="xtick"><text text-anchor="end" x="-2.0999999999999996" y="456.79999999999995" transform="translate(634.52,0) rotate(-90,-2.0999999999999996,450.79999999999995)" style="font-family: 'Open Sans', verdana, arial, sans-serif; font-size: 12px; fill: rgb(36, 36, 36); fill-opacity: 1; white-space: pre;">33</text></g><g class="xtick"><text text-anchor="end" x="-2.0999999999999996" y="456.79999999999995" transform="translate(653.44,0) rotate(-90,-2.0999999999999996,450.79999999999995)" style="font-family: 'Open Sans', verdana, arial, sans-serif; font-size: 12px; fill: rgb(36, 36, 36); fill-opacity: 1; white-space: pre;">34</text></g><g class="xtick"><text text-anchor="end" x="-2.0999999999999996" y="456.79999999999995" transform="translate(672.36,0) rotate(-90,-2.0999999999999996,450.79999999999995)" style="font-family: 'Open Sans', verdana, arial, sans-serif; font-size: 12px; fill: rgb(36, 36, 36); fill-opacity: 1; white-space: pre;">35</text></g><g class="xtick"><text text-anchor="end" x="-2.0999999999999996" y="456.79999999999995" transform="translate(691.28,0) rotate(-90,-2.0999999999999996,450.79999999999995)" style="font-family: 'Open Sans', verdana, arial, sans-serif; font-size: 12px; fill: rgb(36, 36, 36); fill-opacity: 1; white-space: pre;">36</text></g><g class="xtick"><text text-anchor="end" x="-2.0999999999999996" y="456.79999999999995" transform="translate(710.2,0) rotate(-90,-2.0999999999999996,450.79999999999995)" style="font-family: 'Open Sans', verdana, arial, sans-serif; font-size: 12px; fill: rgb(36, 36, 36); fill-opacity: 1; white-space: pre;">37</text></g><g class="xtick"><text text-anchor="end" x="-2.0999999999999996" y="456.79999999999995" transform="translate(729.12,0) rotate(-90,-2.0999999999999996,450.79999999999995)" style="font-family: 'Open Sans', verdana, arial, sans-serif; font-size: 12px; fill: rgb(36, 36, 36); fill-opacity: 1; white-space: pre;">38</text></g><g class="xtick"><text text-anchor="end" x="-2.0999999999999996" y="456.79999999999995" transform="translate(748.04,0) rotate(-90,-2.0999999999999996,450.79999999999995)" style="font-family: 'Open Sans', verdana, arial, sans-serif; font-size: 12px; fill: rgb(36, 36, 36); fill-opacity: 1; white-space: pre;">39</text></g><g class="xtick"><text text-anchor="end" x="-2.0999999999999996" y="456.79999999999995" transform="translate(766.96,0) rotate(-90,-2.0999999999999996,450.79999999999995)" style="font-family: 'Open Sans', verdana, arial, sans-serif; font-size: 12px; fill: rgb(36, 36, 36); fill-opacity: 1; white-space: pre;">40</text></g><g class="xtick"><text text-anchor="end" x="-2.0999999999999996" y="456.79999999999995" transform="translate(785.88,0) rotate(-90,-2.0999999999999996,450.79999999999995)" style="font-family: 'Open Sans', verdana, arial, sans-serif; font-size: 12px; fill: rgb(36, 36, 36); fill-opacity: 1; white-space: pre;">41</text></g><g class="xtick"><text text-anchor="end" x="-2.0999999999999996" y="456.79999999999995" transform="translate(804.8,0) rotate(-90,-2.0999999999999996,450.79999999999995)" style="font-family: 'Open Sans', verdana, arial, sans-serif; font-size: 12px; fill: rgb(36, 36, 36); fill-opacity: 1; white-space: pre;">42</text></g><g class="xtick"><text text-anchor="end" x="-2.0999999999999996" y="456.79999999999995" transform="translate(823.72,0) rotate(-90,-2.0999999999999996,450.79999999999995)" style="font-family: 'Open Sans', verdana, arial, sans-serif; font-size: 12px; fill: rgb(36, 36, 36); fill-opacity: 1; white-space: pre;">43</text></g><g class="xtick"><text text-anchor="end" x="-2.0999999999999996" y="456.79999999999995" transform="translate(842.64,0) rotate(-90,-2.0999999999999996,450.79999999999995)" style="font-family: 'Open Sans', verdana, arial, sans-serif; font-size: 12px; fill: rgb(36, 36, 36); fill-opacity: 1; white-space: pre;">44</text></g><g class="xtick"><text text-anchor="end" x="-2.0999999999999996" y="456.79999999999995" transform="translate(861.56,0) rotate(-90,-2.0999999999999996,450.79999999999995)" style="font-family: 'Open Sans', verdana, arial, sans-serif; font-size: 12px; fill: rgb(36, 36, 36); fill-opacity: 1; white-space: pre;">45</text></g><g class="xtick"><text text-anchor="end" x="-2.0999999999999996" y="456.79999999999995" transform="translate(880.48,0) rotate(-90,-2.0999999999999996,450.79999999999995)" style="font-family: 'Open Sans', verdana, arial, sans-serif; font-size: 12px; fill: rgb(36, 36, 36); fill-opacity: 1; white-space: pre;">46</text></g><g class="xtick"><text text-anchor="end" x="-2.0999999999999996" y="456.79999999999995" transform="translate(899.4,0) rotate(-90,-2.0999999999999996,450.79999999999995)" style="font-family: 'Open Sans', verdana, arial, sans-serif; font-size: 12px; fill: rgb(36, 36, 36); fill-opacity: 1; white-space: pre;">47</text></g><g class="xtick"><text text-anchor="end" x="-2.0999999999999996" y="456.79999999999995" transform="translate(918.32,0) rotate(-90,-2.0999999999999996,450.79999999999995)" style="font-family: 'Open Sans', verdana, arial, sans-serif; font-size: 12px; fill: rgb(36, 36, 36); fill-opacity: 1; white-space: pre;">48</text></g><g class="xtick"><text text-anchor="end" x="-2.0999999999999996" y="456.79999999999995" transform="translate(937.24,0) rotate(-90,-2.0999999999999996,450.79999999999995)" style="font-family: 'Open Sans', verdana, arial, sans-serif; font-size: 12px; fill: rgb(36, 36, 36); fill-opacity: 1; white-space: pre;">49</text></g><g class="xtick"><text text-anchor="end" x="-2.0999999999999996" y="456.79999999999995" transform="translate(956.16,0) rotate(-90,-2.0999999999999996,450.79999999999995)" style="font-family: 'Open Sans', verdana, arial, sans-serif; font-size: 12px; fill: rgb(36, 36, 36); fill-opacity: 1; white-space: pre;">50</text></g><g class="xtick"><text text-anchor="end" x="-2.0999999999999996" y="456.79999999999995" transform="translate(975.08,0) rotate(-90,-2.0999999999999996,450.79999999999995)" style="font-family: 'Open Sans', verdana, arial, sans-serif; font-size: 12px; fill: rgb(36, 36, 36); fill-opacity: 1; white-space: pre;">51</text></g><g class="xtick"><text text-anchor="end" x="-2.0999999999999996" y="456.79999999999995" transform="translate(994,0) rotate(-90,-2.0999999999999996,450.79999999999995)" style="font-family: 'Open Sans', verdana, arial, sans-serif; font-size: 12px; fill: rgb(36, 36, 36); fill-opacity: 1; white-space: pre;">52</text></g></g><g class="yaxislayer-above"><path class="ytick ticks crisp" d="M47,0h-5" transform="translate(0,384.2)" style="stroke: rgb(68, 68, 68); stroke-opacity: 1; stroke-width: 1px;"/><path class="ytick ticks crisp" d="M47,0h-5" transform="translate(0,316.59)" style="stroke: rgb(68, 68, 68); stroke-opacity: 1; stroke-width: 1px;"/><path class="ytick ticks crisp" d="M47,0h-5" transform="translate(0,248.98)" style="stroke: rgb(68, 68, 68); stroke-opacity: 1; stroke-width: 1px;"/><path class="ytick ticks crisp" d="M47,0h-5" transform="translate(0,181.37)" style="stroke: rgb(68, 68, 68); stroke-opacity: 1; stroke-width: 1px;"/><path class="ytick ticks crisp" d="M47,0h-5" transform="translate(0,113.76)" style="stroke: rgb(68, 68, 68); stroke-opacity: 1; stroke-width: 1px;"/><path class="ytick ticks crisp" d="M47,0h-5" transform="translate(0,46.15)" style="stroke: rgb(68, 68, 68); stroke-opacity: 1; stroke-width: 1px;"/><g class="ytick"><text text-anchor="end" x="39.6" y="4.199999999999999" transform="translate(0,384.2)" style="font-family: 'Open Sans', verdana, arial, sans-serif; font-size: 12px; fill: rgb(36, 36, 36); fill-opacity: 1; white-space: pre;">50</text></g><g class="ytick"><text text-anchor="end" x="39.6" y="4.199999999999999" style="font-family: 'Open Sans', verdana, arial, sans-serif; font-size: 12px; fill: rgb(36, 36, 36); fill-opacity: 1; white-space: pre;" transform="translate(0,316.59)">52</text></g><g class="ytick"><text text-anchor="end" x="39.6" y="4.199999999999999" style="font-family: 'Open Sans', verdana, arial, sans-serif; font-size: 12px; fill: rgb(36, 36, 36); fill-opacity: 1; white-space: pre;" transform="translate(0,248.98)">54</text></g><g class="ytick"><text text-anchor="end" x="39.6" y="4.199999999999999" style="font-family: 'Open Sans', verdana, arial, sans-serif; font-size: 12px; fill: rgb(36, 36, 36); fill-opacity: 1; white-space: pre;" transform="translate(0,181.37)">56</text></g><g class="ytick"><text text-anchor="end" x="39.6" y="4.199999999999999" style="font-family: 'Open Sans', verdana, arial, sans-serif; font-size: 12px; fill: rgb(36, 36, 36); fill-opacity: 1; white-space: pre;" transform="translate(0,113.76)">58</text></g><g class="ytick"><text text-anchor="end" x="39.6" y="4.199999999999999" style="font-family: 'Open Sans', verdana, arial, sans-serif; font-size: 12px; fill: rgb(36, 36, 36); fill-opacity: 1; white-space: pre;" transform="translate(0,46.15)">60</text></g></g><g class="overaxes-above"/></g></g><g class="polarlayer"/><g class="smithlayer"/><g class="ternarylayer"/><g class="geolayer"/><g class="funnelarealayer"/><g class="pielayer"/><g class="iciclelayer"/><g class="treemaplayer"/><g class="sunburstlayer"/><g class="glimages"/><defs id="topdefs-ef0e19"><g class="clips"/></defs><g class="layer-above"><g class="imagelayer"/><g class="shapelayer"/></g><g class="infolayer"><g class="g-gtitle"/><g class="g-xtitle"/><g class="g-ytitle" transform="translate(9.072265625,0)"><text class="ytitle" transform="rotate(-90,4.928125000000001,220)" x="4.928125000000001" y="220" text-anchor="middle" style="opacity: 1; font-family: 'Open Sans', verdana, arial, sans-serif; font-size: 14px; fill: rgb(36, 36, 36); fill-opacity: 1; white-space: pre;">Resting Heart Rate (bpm)</text></g><g class="annotation" data-index="0" style="opacity: 1;"><g class="annotation-text-g" transform="rotate(0,85.84,482.30000000000007)"><g class="cursor-pointer" transform="translate(72,472)"><rect class="bg" x="0.5" y="0.5" width="27" height="20" style="stroke-width: 1px; stroke: rgb(0, 0, 0); stroke-opacity: 0; fill: rgb(0, 0, 0); fill-opacity: 0;"/><text class="annotation-text" text-anchor="start" x="2" y="16" style="font-family: 'Open Sans', verdana, arial, sans-serif; font-size: 14px; fill: rgb(36, 36, 36); fill-opacity: 1; white-space: pre;">Jan</text></g></g></g><g class="annotation" data-index="1" style="opacity: 1;"><g class="annotation-text-g" transform="rotate(0,161.51999999999998,482.30000000000007)"><g class="cursor-pointer" transform="translate(147,472)"><rect class="bg" x="0.5" y="0.5" width="28" height="20" style="stroke-width: 1px; stroke: rgb(0, 0, 0); stroke-opacity: 0; fill: rgb(0, 0, 0); fill-opacity: 0;"/><text class="annotation-text" text-anchor="start" x="2" y="16" style="font-family: 'Open Sans', verdana, arial, sans-serif; font-size: 14px; fill: rgb(36, 36, 36); fill-opacity: 1; white-space: pre;">Feb</text></g></g></g><g class="annotation" data-index="2" style="opacity: 1;"><g class="annotation-text-g" transform="rotate(0,237.2,482.30000000000007)"><g class="cursor-pointer" transform="translate(222,472)"><rect class="bg" x="0.5" y="0.5" width="29" height="20" style="stroke-width: 1px; stroke: rgb(0, 0, 0); stroke-opacity: 0; fill: rgb(0, 0, 0); fill-opacity: 0;"/><text class="annotation-text" text-anchor="start" x="2" y="16" style="font-family: 'Open Sans', verdana, arial, sans-serif; font-size: 14px; fill: rgb(36, 36, 36); fill-opacity: 1; white-space: pre;">Mar</text></g></g></g><g class="annotation" data-index="3" style="opacity: 1;"><g class="annotation-text-g" transform="rotate(0,331.8,482.30000000000007)"><g class="cursor-pointer" transform="translate(318,472)"><rect class="bg" x="0.5" y="0.5" width="27" height="20" style="stroke-width: 1px; stroke: rgb(0, 0, 0); stroke-opacity: 0; fill: rgb(0, 0, 0); fill-opacity: 0;"/><text class="annotation-text" text-anchor="start" x="2" y="16" style="font-family: 'Open Sans', verdana, arial, sans-serif; font-size: 14px; fill: rgb(36, 36, 36); fill-opacity: 1; white-space: pre;">Apr</text></g></g></g><g class="annotation" data-index="4" style="opacity: 1;"><g class="annotation-text-g" transform="rotate(0,407.48,482.30000000000007)"><g class="cursor-pointer" transform="translate(391,472)"><rect class="bg" x="0.5" y="0.5" width="32" height="20" style="stroke-width: 1px; stroke: rgb(0, 0, 0); stroke-opacity: 0; fill: rgb(0, 0, 0); fill-opacity: 0;"/><text class="annotation-text" text-anchor="start" x="2" y="16" style="font-family: 'Open Sans', verdana, arial, sans-serif; font-size: 14px; fill: rgb(36, 36, 36); fill-opacity: 1; white-space: pre;">May</text></g></g></g><g class="annotation" data-index="5" style="opacity: 1;"><g class="annotation-text-g" transform="rotate(0,483.16,482.30000000000007)"><g class="cursor-pointer" transform="translate(469,472)"><rect class="bg" x="0.5" y="0.5" width="27" height="20" style="stroke-width: 1px; stroke: rgb(0, 0, 0); stroke-opacity: 0; fill: rgb(0, 0, 0); fill-opacity: 0;"/><text class="annotation-text" text-anchor="start" x="2" y="16" style="font-family: 'Open Sans', verdana, arial, sans-serif; font-size: 14px; fill: rgb(36, 36, 36); fill-opacity: 1; white-space: pre;">Jun</text></g></g></g><g class="annotation" data-index="6" style="opacity: 1;"><g class="annotation-text-g" transform="rotate(0,577.76,482.30000000000007)"><g class="cursor-pointer" transform="translate(566,472)"><rect class="bg" x="0.5" y="0.5" width="22" height="20" style="stroke-width: 1px; stroke: rgb(0, 0, 0); stroke-opacity: 0; fill: rgb(0, 0, 0); fill-opacity: 0;"/><text class="annotation-text" text-anchor="start" x="2" y="16" style="font-family: 'Open Sans', verdana, arial, sans-serif; font-size: 14px; fill: rgb(36, 36, 36); fill-opacity: 1; white-space: pre;">Jul</text></g></g></g><g class="annotation" data-index="7" style="opacity: 1;"><g class="annotation-text-g" transform="rotate(0,653.44,482.30000000000007)"><g class="cursor-pointer" transform="translate(638,472)"><rect class="bg" x="0.5" y="0.5" width="30" height="20" style="stroke-width: 1px; stroke: rgb(0, 0, 0); stroke-opacity: 0; fill: rgb(0, 0, 0); fill-opacity: 0;"/><text class="annotation-text" text-anchor="start" x="2" y="16" style="font-family: 'Open Sans', verdana, arial, sans-serif; font-size: 14px; fill: rgb(36, 36, 36); fill-opacity: 1; white-space: pre;">Aug</text></g></g></g><g class="annotation" data-index="8" style="opacity: 1;"><g class="annotation-text-g" transform="rotate(0,729.12,482.30000000000007)"><g class="cursor-pointer" transform="translate(714,472)"><rect class="bg" x="0.5" y="0.5" width="30" height="20" style="stroke-width: 1px; stroke: rgb(0, 0, 0); stroke-opacity: 0; fill: rgb(0, 0, 0); fill-opacity: 0;"/><text class="annotation-text" text-anchor="start" x="2" y="16" style="font-family: 'Open Sans', verdana, arial, sans-serif; font-size: 14px; fill: rgb(36, 36, 36); fill-opacity: 1; white-space: pre;">Sep</text></g></g></g><g class="annotation" data-index="9" style="opacity: 1;"><g class="annotation-text-g" transform="rotate(0,823.72,482.30000000000007)"><g class="cursor-pointer" transform="translate(810,472)"><rect class="bg" x="0.5" y="0.5" width="27" height="20" style="stroke-width: 1px; stroke: rgb(0, 0, 0); stroke-opacity: 0; fill: rgb(0, 0, 0); fill-opacity: 0;"/><text class="annotation-text" text-anchor="start" x="2" y="16" style="font-family: 'Open Sans', verdana, arial, sans-serif; font-size: 14px; fill: rgb(36, 36, 36); fill-opacity: 1; white-space: pre;">Oct</text></g></g></g><g class="annotation" data-index="10" style="opacity: 1;"><g class="annotation-text-g" transform="rotate(0,899.4,482.30000000000007)"><g class="cursor-pointer" transform="translate(884,472)"><rect class="bg" x="0.5" y="0.5" width="30" height="20" style="stroke-width: 1px; stroke: rgb(0, 0, 0); stroke-opacity: 0; fill: rgb(0, 0, 0); fill-opacity: 0;"/><text class="annotation-text" text-anchor="start" x="2" y="16" style="font-family: 'Open Sans', verdana, arial, sans-serif; font-size: 14px; fill: rgb(36, 36, 36); fill-opacity: 1; white-space: pre;">Nov</text></g></g></g><g class="annotation" data-index="11" style="opacity: 1;"><g class="annotation-text-g" transform="rotate(0,975.08,482.30000000000007)"><g class="cursor-pointer" transform="translate(960,472)"><rect class="bg" x="0.5" y="0.5" width="29" height="20" style="stroke-width: 1px; stroke: rgb(0, 0, 0); stroke-opacity: 0; fill: rgb(0, 0, 0); fill-opacity: 0;"/><text class="annotation-text" text-anchor="start" x="2" y="16" style="font-family: 'Open Sans', verdana, arial, sans-serif; font-size: 14px; fill: rgb(36, 36, 36); fill-opacity: 1; white-space: pre;">Dec</text></g></g></g></g></svg>
