<svg class="main-svg" xmlns="http://www.w3.org/2000/svg" xmlns:xlink="http://www.w3.org/1999/xlink" width="800" height="400" style="" viewBox="0 0 800 400"><rect x="0" y="0" width="800" height="400" style="fill: rgb(0, 0, 0); fill-opacity: 0;"/><defs id="defs-4ae7f6"><g class="clips"><clipPath id="clip4ae7f6xyplot" class="plotclip"><rect width="640" height="260"/></clipPath><clipPath class="axesclip" id="clip4ae7f6x"><rect x="80" y="0" width="640" height="400"/></clipPath><clipPath class="axesclip" id="clip4ae7f6y"><rect x="0" y="60" width="800" height="260"/></clipPath><clipPath class="axesclip" id="clip4ae7f6xy"><rect x="80" y="60" width="640" height="260"/></clipPath></g><g class="gradients"/><g class="patterns"/></defs><g class="bglayer"><rect class="bg" x="80" y="60" width="640" height="260" style="fill: rgb(0, 0, 0); fill-opacity: 0; stroke-width: 0;"/></g><g class="layer-below"><g class="imagelayer"/><g class="shapelayer"/></g><g class="cartesianlayer"><g class="subplot xy"><g class="layer-subplot"><g class="shapelayer"/><g class="imagelayer"/></g><g class="minor-gridlayer"><g class="x"/><g class="y"/></g><g class="gridlayer"><g class="x"/><g class="y"/></g><g class="zerolinelayer"/><g class="layer-between"><g class="shapelayer"/><g class="imagelayer"/></g><path class="xlines-below"/><path class="ylines-below"/><g class="overlines-below"/><g class="xaxislayer-below"/><g class="yaxislayer-below"/><g class="overaxes-below"/><g class="overplot"><g class="xy" transform="translate(80,60)" clip-path="url(#clip4ae7f6xyplot)"><g class="scatterlayer mlayer"><g class="trace scatter trace6313b8" style="stroke-miterlimit: 2; opacity: 1;"><g class="fills"/><g class="errorbars"/><g class="lines"><path class="js-line" d="M0,58.36L1.53,34.52L3.51,78.09L5.5,74.63L7.47,102.36L9.47,95.85L11.44,61.75L13.44,105.35L15.42,71.55L17.43,76.71L19.39,40.32L23.35,50.74L25.36,52.93L27.32,42.82L29.31,55.97L31.27,75.03L33.28,64.76L35.25,68.54L37.24,69.35L41.21,81.42L43.19,112.26L45.17,104.79L47.16,103.54L49.14,85.1L51.13,107.29L53.1,105.42L55.1,97.61L57.07,116.38L59.08,124.68L61.05,111.61L63.06,120.03L65.02,115.66L67.03,116.23L68.99,100.37L70.98,143.93L72.94,207.78L74.94,179.72L76.91,209.44L78.91,157.26L80.88,167.92L82.87,169.98L84.85,185.45L86.84,160.42L88.82,171.32L90.8,174.13L92.8,182.44L94.76,170.93L96.77,170.51L98.73,168.64L100.74,191.81L102.71,176.58L104.72,184.65L106.68,200.44L108.69,189.47L110.65,187.78L112.64,160.65L114.6,174.32L118.58,112.03L120.57,147.85L122.55,153.07L124.53,154.71L126.52,195.96L128.5,180.35L130.49,166.65L132.46,198.54L134.46,179.73L136.43,196.73L138.43,201.82L140.39,233.08L144.38,166.12L146.39,203.22L148.35,187.04L150.35,184.71L152.31,179.45L154.3,197.28L156.27,206.03L158.27,199.86L160.24,160.94L162.23,31.39L164.21,162.57L166.2,168.67L168.18,171.97L170.16,181L172.15,210.67L174.13,170.6L176.12,182.68L178.09,177.35L180.09,167.33L182.06,111.44L184.07,79.04L186.04,77.44L188.05,81.12L190.01,74.48L192.02,80.54L193.98,101.77L195.97,110.95L197.93,97.49L201.9,42.54L203.9,36.25L205.87,49.54L207.86,119.45L209.85,100.45L211.83,69.39L213.82,53.97L215.79,97.92L217.79,81.09L219.76,91.34L221.76,92.95L223.24,74.03L229.73,95.3L231.67,104.53L233.68,97.96L234.9,110.16L298.12,79.5L299.11,87.96L301.12,94.08L303.08,75.57L305.08,66.71L307.06,84.42L309.05,93.83L311.03,97.74L313.01,100.09L315,78.24L316.98,96.78L318.96,99.32L320.94,102.91L322.94,99.23L324.91,110.13L326.91,95.83L330.9,94.76L332.86,87.83L334.87,104.41L336.82,93.55L338.83,143.41L340.79,169.02L344.76,163.95L346.75,170.55L348.72,175.74L350.71,175.86L352.69,179.7L354.68,168.62L356.67,183.16L358.64,207.57L362.62,218.44L364.6,232.51L366.58,197.79L368.57,176.49L370.55,183.47L372.55,182.57L374.51,214.42L376.52,208.88L378.49,207.71L380.48,202.31L382.45,178.25L384.45,104.08L386.42,195.75L388.41,201.37L392.38,205.24L394.35,197.05L396.34,190.58L398.32,188.73L400.3,183.19L402.29,164.35L404.27,211.45L406.27,200.56L408.23,219.81L410.24,195.78L412.22,186.37L414.23,184.03L416.18,188.85L418.19,170.55L420.15,177.34L422.15,145.54L424.1,155.37L426.11,161.51L428.08,203.58L430.07,192.79L432.05,164.01L434.04,180.39L436.02,177.11L438,191.04L439.41,155.25L448.22,157.9L449.9,163.76L451.9,146.12L453.88,157.51L455.89,159.21L457.85,168L459.86,184.3L461.82,190.97L463.81,96.83L465.77,29.81L467.77,56.84L469.74,85.37L471.74,184.38L473.71,198.39L475.7,164.76L477.68,195.96L479.67,183.83L481.66,154.98L483.64,163.69L485.63,185.32L487.6,173.87L489.61,188.69L491.56,181.86L493.56,168.71L495.53,169.64L497.54,174.49L499.5,207.13L501.51,204.11L503.47,195.84L507.44,174.4L509.44,120.21L513.4,102.49L515.38,106.32L517.37,113.74L519.34,134.12L523.32,87.96L525.3,168.12L527.29,219.16L529.26,211.21L531.26,207.81L533.23,235.17L535.23,247L537.21,241.14L539.22,199.01L541.17,182.21L543.19,124.4L545.14,160.72L547.14,191.1L549.1,153.4L551.1,109.36L553.07,102.88L555.07,102.74L557.04,111.98L559.03,137.1L561.01,180.14L563,120.7L564.98,123.17L566.86,97.45L568.95,147.49L570.93,127.84L572.92,125L574.89,117.38L576.89,90.44L578.85,96.68L580.86,90.41L582.84,81.29L584.85,81.21L586.81,40.84L588.82,46.04L590.77,85.67L592.77,77.1L594.73,65.64L596.73,58.62L598.7,32.63L600.7,46.35L602.67,67.95L604.66,74.34L606.64,57.47L608.62,86.32L610.61,45.65L612.59,57.06L614.58,49.58L616.55,47.23L618.56,35.68L620.52,91.46L622.53,93.91L624.5,91.32L628.47,13L630.48,62.43L632.44,27.03L634.43,49.6L636.39,62.15L638.4,89.64L640,112.33" style="vector-effect: none; fill: none; stroke: rgb(31, 119, 180); stroke-opacity: 1; stroke-width: 2px; opacity: 1;"/></g><g class="points"/><g class="text"/></g></g></g></g><path class="xlines-above crisp" d="M79,320.5H720" style="fill: none; stroke-width: 1px; stroke: rgb(36, 36, 36); stroke-opacity: 1;"/><path class="ylines-above crisp" d="M79.5,60V320" style="fill: none; stroke-width: 1px; stroke: rgb(36, 36, 36); stroke-opacity: 1;"/><g class="overlines-above"/><g class="xaxislayer-above"><path class="xtick ticks crisp" d="M0,321v5" transform="translate(191.66,0)" style="stroke: rgb(68, 68, 68); stroke-opacity: 1; stroke-width: 1px;"/><path class="xtick ticks crisp" d="M0,321v5" transform="translate(310.7,0)" style="stroke: rgb(68, 68, 68); stroke-opacity: 1; stroke-width: 1px;"/><path class="xtick ticks crisp" d="M0,321v5" transform="translate(429.74,0)" style="stroke: rgb(68, 68, 68); stroke-opacity: 1; stroke-width: 1px;"/><path class="xtick ticks crisp" d="M0,321v5" transform="translate(548.78,0)" style="stroke: rgb(68, 68, 68); stroke-opacity: 1; stroke-width: 1px;"/><path class="xtick ticks crisp" d="M0,321v5" transform="translate(667.82,0)" style="stroke: rgb(68, 68, 68); stroke-opacity: 1; stroke-width: 1px;"/><g class="xtick"><text text-anchor="middle" x="0" y="340.4" transform="translate(191.66,0)" style="font-family: 'Open Sans', verdana, arial, sans-serif; font-size: 12px; fill: rgb(36, 36, 36); fill-opacity: 1; white-space: pre; opacity: 1;"><tspan class="line" dy="0em" x="0" y="340.4">12:00</tspan><tspan class="line" dy="1.3em" x="0" y="340.4">May 9, 2024</tspan></text></g><g class="xtick"><text text-anchor="middle" x="0" y="340.4" style="font-family: 'Open Sans', verdana, arial, sans-serif; font-size: 12px; fill: rgb(36, 36, 36); fill-opacity: 1; white-space: pre; opacity: 1;" transform="translate(310.7,0)">13:00</text></g><g class="xtick"><text text-anchor="middle" x="0" y="340.4" style="font-family: 'Open Sans', verdana, arial, sans-serif; font-size: 12px; fill: rgb(36, 36, 36); fill-opacity: 1; white-space: pre; opacity: 1;" transform="translate(429.74,0)">14:00</text></g><g class="xtick"><text text-anchor="middle" x="0" y="340.4" style="font-family: 'Open Sans', verdana, arial, sans-serif; font-size: 12px; fill: rgb(36, 36, 36); fill-opacity: 1; white-space: pre; opacity: 1;" transform="translate(548.78,0)">15:00</text></g><g class="xtick"><text text-anchor="middle" x="0" y="340.4" style="font-family: 'Open Sans', verdana, arial, sans-serif; font-size: 12px; fill: rgb(36, 36, 36); fill-opacity: 1; white-space: pre; opacity: 1;" transform="translate(667.82,0)">16:00</text></g></g><g class="yaxislayer-above"><path class="ytick ticks crisp" d="M79,0h-5" transform="translate(0,306.66999999999996)" style="stroke: rgb(68, 68, 68); stroke-opacity: 1; stroke-width: 1px;"/><path class="ytick ticks crisp" d="M79,0h-5" transform="translate(0,251.18)" style="stroke: rgb(68, 68, 68); stroke-opacity: 1; stroke-width: 1px;"/><path class="ytick ticks crisp" d="M79,0h-5" transform="translate(0,195.68)" style="stroke: rgb(68, 68, 68); stroke-opacity: 1; stroke-width: 1px;"/><path class="ytick ticks crisp" d="M79,0h-5" transform="translate(0,140.19)" style="stroke: rgb(68, 68, 68); stroke-opacity: 1; stroke-width: 1px;"/><path class="ytick ticks crisp" d="M79,0h-5" transform="translate(0,84.7)" style="stroke: rgb(68, 68, 68); stroke-opacity: 1; stroke-width: 1px;"/><g class="ytick"><text text-anchor="end" x="71.6" y="4.199999999999999" transform="translate(0,306.66999999999996)" style="font-family: 'Open Sans', verdana, arial, sans-serif; font-size: 12px; fill: rgb(36, 36, 36); fill-opacity: 1; white-space: pre; opacity: 1;">−4</text></g><g class="ytick"><text text-anchor="end" x="71.6" y="4.199999999999999" style="font-family: 'Open Sans', verdana, arial, sans-serif; font-size: 12px; fill: rgb(36, 36, 36); fill-opacity: 1; white-space: pre; opacity: 1;" transform="translate(0,251.18)">−2</text></g><g class="ytick"><text text-anchor="end" x="71.6" y="4.199999999999999" style="font-family: 'Open Sans', verdana, arial, sans-serif; font-size: 12px; fill: rgb(36, 36, 36); fill-opacity: 1; white-space: pre; opacity: 1;" transform="translate(0,195.68)">0</text></g><g class="ytick"><text text-anchor="end" x="71.6" y="4.199999999999999" style="font-family: 'Open Sans', verdana, arial, sans-serif; font-size: 12px; fill: rgb(36, 36, 36); fill-opacity: 1; white-space: pre; opacity: 1;" transform="translate(0,140.19)">2</text></g><g class="ytick"><text text-anchor="end" x="71.6" y="4.199999999999999" style="font-family: 'Open Sans', verdana, arial, sans-serif; font-size: 12px; fill: rgb(36, 36, 36); fill-opacity: 1; white-space: pre; opacity: 1;" transform="translate(0,84.7)">4</text></g></g><g class="overaxes-above"/></g></g><g class="polarlayer"/><g class="smithlayer"/><g class="ternarylayer"/><g class="geolayer"/><g class="funnelarealayer"/><g class="pielayer"/><g class="iciclelayer"/><g class="treemaplayer"/><g class="sunburstlayer"/><g class="glimages"/><defs id="topdefs-4ae7f6"><g class="clips"/></defs><g class="layer-above"><g class="imagelayer"/><g class="shapelayer"/></g><g class="infolayer"><g class="g-gtitle"/><g class="g-xtitle"><text class="xtitle" x="400" y="382.8" text-anchor="middle" style="opacity: 1; font-family: 'Open Sans', verdana, arial, sans-serif; font-size: 14px; fill: rgb(36, 36, 36); fill-opacity: 1; white-space: pre;">Time (hh:min)</text></g><g class="g-ytitle"><text class="ytitle" transform="rotate(-90,34.740625,190)" x="34.740625" y="190" text-anchor="middle" style="opacity: 1; font-family: 'Open Sans', verdana, arial, sans-serif; font-size: 14px; fill: rgb(36, 36, 36); fill-opacity: 1; white-space: pre;">Elevation (m)</text></g></g></svg>